<svg width="36" height="36" viewBox="0 0 36 36" fill="none" xmlns="http://www.w3.org/2000/svg">
<path d="M22.1547 8.30737C17.5668 8.30737 8.37669 4.58815 8.37669 0H8.30875C8.30875 3.67214 9.76746 7.19388 12.364 9.79052C14.9606 12.3872 18.4822 13.846 22.1544 13.8461C24.3577 13.8461 26.4707 14.7214 28.0288 16.2794C29.5868 17.8373 30.4621 19.9504 30.4621 22.1537C30.4626 24.357 29.5877 26.4704 28.03 28.0286C26.4723 29.587 24.3594 30.4626 22.1561 30.4631C19.9527 30.4635 17.8394 29.5886 16.2811 28.0309C14.7228 26.4732 13.8471 24.3602 13.8467 22.157C13.8466 20.3386 13.4884 18.5381 12.7925 16.8583C12.0966 15.1784 11.0767 13.652 9.79092 12.3663C8.50513 11.0806 6.97871 10.0607 5.29877 9.36496C3.61885 8.66919 1.81831 8.31111 0 8.31118V8.37857C4.58729 8.37857 8.30652 17.5647 8.30824 22.1535H8.30737C8.30735 24.8921 9.11936 27.5691 10.6407 29.8461C12.1621 32.1231 14.3246 33.8978 16.8546 34.9458C19.3846 35.994 22.1686 36.2683 24.8546 35.734C27.5404 35.1999 30.0076 33.8812 31.9441 31.945C33.8805 30.0086 35.1994 27.5416 35.7338 24.8556C36.2683 22.1698 35.9941 19.3858 34.9463 16.8557C33.8985 14.3256 32.124 12.163 29.8471 10.6414C27.5701 9.11983 24.8932 8.30758 22.1547 8.30737Z" fill="url(#paint0_linear_65_248)"/>
<defs>
<linearGradient id="paint0_linear_65_248" x1="28.692" y1="31.14" x2="7.77601" y2="2.412" gradientUnits="userSpaceOnUse">
<stop offset="0.295" stop-color="#E73959"/>
<stop offset="0.384" stop-color="#E73D58"/>
<stop offset="0.477" stop-color="#E74955"/>
<stop offset="0.571" stop-color="#E95E51"/>
<stop offset="0.666" stop-color="#EA7B4B"/>
<stop offset="0.761" stop-color="#EDA044"/>
<stop offset="0.857" stop-color="#EFCE3B"/>
<stop offset="0.868" stop-color="#F0D43A"/>
</linearGradient>
</defs>
</svg>
